# xmcd
#
# Track frame offsets:
#	150
#	15549
#	31396
#	42351
#	69832
#	85704
#	106747
#	131819
#
# Disc length: 2066 seconds
# Revision: 0
# Processed by: cddbd v1.5.2PL0 Copyright (c) Steve Scherf et al.
# Submitted via: dBpowerAMP V12.0
#
DISCID=5a081008
DTITLE=Roy Buchanan - In the Beginning
DYEAR=1974
DGENRE=Blues
TTITLE0=Rescue Me
TTITLE1=I'm a Ram
TTITLE2=In the Beginning
TTITLE3=CC Ryder
TTITLE4=Country Preacher
TTITLE5=You're Killing My Love
TTITLE6=She Can't Say No
TTITLE7=Wayfaring Pilgrim
EXTD=
EXTT0=
EXTT1=
EXTT2=
EXTT3=
EXTT4=
EXTT5=
EXTT6=
EXTT7=
PLAYORDER=
